<svg xmlns="http://www.w3.org/2000/svg" version="1.1" xmlns:xlink="http://www.w3.org/1999/xlink" xmlns:svgjs="http://svgjs.dev/svgjs" viewBox="0 0 800 800"><defs><radialGradient id="ccclaymoji-grad-dark" r="93%" cx="20%" cy="20%">
      <stop offset="70%" stop-color="hsl(41, 100%, 67%)" stop-opacity="0"></stop>
      <stop offset="97%" stop-color="#c89924" stop-opacity="1"></stop>
    </radialGradient><radialGradient id="ccclaymoji-grad-light" r="65%" cx="28%" cy="20%">
    <stop offset="0%" stop-color="#fffd88" stop-opacity="0.75"></stop>
    <stop offset="100%" stop-color="hsl(41, 100%, 67%)" stop-opacity="0"></stop>
  </radialGradient><filter id="ccclaymoji-blur" x="-100%" y="-100%" width="400%" height="400%" filterUnits="objectBoundingBox" primitiveUnits="userSpaceOnUse" color-interpolation-filters="sRGB">
	<feGaussianBlur stdDeviation="30" x="0%" y="0%" width="100%" height="100%" in="SourceGraphic" edgeMode="none" result="blur"></feGaussianBlur></filter><filter id="inner-blur" x="-100%" y="-100%" width="400%" height="400%" filterUnits="objectBoundingBox" primitiveUnits="userSpaceOnUse" color-interpolation-filters="sRGB">
	<feGaussianBlur stdDeviation="2" x="0%" y="0%" width="100%" height="100%" in="SourceGraphic" edgeMode="none" result="blur"></feGaussianBlur></filter><filter id="eye-shadow" x="-100%" y="-100%" width="400%" height="400%" filterUnits="objectBoundingBox" primitiveUnits="userSpaceOnUse" color-interpolation-filters="sRGB">
	<feDropShadow stdDeviation="10" dx="10" dy="10" flood-color="#000000" flood-opacity="0.2" x="0%" y="0%" width="100%" height="100%" result="dropShadow"></feDropShadow>
</filter><linearGradient id="eye-light" x1="50%" y1="0%" x2="50%" y2="100%">
      <stop offset="0%" stop-color="#555555" stop-opacity="1"></stop>
      <stop offset="100%" stop-color="black" stop-opacity="0"></stop>
    </linearGradient><linearGradient id="mouth-light" x1="50%" y1="0%" x2="50%" y2="100%">
    <stop offset="0%" stop-color="#ff9667" stop-opacity="1"></stop>
    <stop offset="100%" stop-color="hsl(3, 100%, 51%)" stop-opacity="0"></stop>
  </linearGradient><filter id="mouth-shadow" x="-100%" y="-100%" width="400%" height="400%" filterUnits="objectBoundingBox" primitiveUnits="userSpaceOnUse" color-interpolation-filters="sRGB">
	<feDropShadow stdDeviation="10" dx="10" dy="10" flood-color="#c20000" flood-opacity="0.2" x="0%" y="0%" width="100%" height="100%" result="dropShadow"></feDropShadow>
</filter></defs><g stroke-linecap="round"><path d="M615 450.00000522335904C615 581.5440753042217 531.5440700808625 688.1805982152728 400 688.1805982152728C268.45650943396225 688.1805982152728 185 581.5440753042217 185 450.00000522335904C185 318.45651465732135 268.45650943396225 211.8194122314453 400 211.8194122314453C531.5440700808625 211.8194122314453 615 318.45651465732135 615 450.00000522335904Z " fill="#c89924" opacity="0.25" filter="url(#ccclaymoji-blur)"></path><path d="M615 400.0000049123737C615 539.0394636018324 539.0394586894587 602.7492926616615 400 602.7492926616615C260.9611538461538 602.7492926616615 185 539.0394636018324 185 400.0000049123737C185 260.9611587585275 260.9611538461538 197.25071716308594 400 197.25071716308594C539.0394586894587 197.25071716308594 615 260.9611587585275 615 400.0000049123737Z " fill="hsl(41, 100%, 67%)"></path><path d="M615 400.0000049123737C615 539.0394636018324 539.0394586894587 602.7492926616615 400 602.7492926616615C260.9611538461538 602.7492926616615 185 539.0394636018324 185 400.0000049123737C185 260.9611587585275 260.9611538461538 197.25071716308594 400 197.25071716308594C539.0394586894587 197.25071716308594 615 260.9611587585275 615 400.0000049123737Z " fill="url(#ccclaymoji-grad-dark)"></path><path d="M615 400.0000049123737C615 539.0394636018324 539.0394586894587 602.7492926616615 400 602.7492926616615C260.9611538461538 602.7492926616615 185 539.0394636018324 185 400.0000049123737C185 260.9611587585275 260.9611538461538 197.25071716308594 400 197.25071716308594C539.0394586894587 197.25071716308594 615 260.9611587585275 615 400.0000049123737Z " fill="url(#ccclaymoji-grad-light)"></path><path d="M305.5 351Q355.5 395 396.5 351 " stroke-width="13" stroke="black" fill="none" filter="url(#eye-shadow)"></path><path d="M305.5 351Q355.5 395 396.5 351 " stroke-width="4.333333333333333" stroke="url(#eye-light)" fill="none" filter="url(#inner-blur)"></path><path d="M466 354.5Q502 404.5 564 354.5 " stroke-width="13" stroke="black" fill="none" filter="url(#eye-shadow)"></path><path d="M466 354.5Q502 404.5 564 354.5 " stroke-width="4.333333333333333" stroke="url(#eye-light)" fill="none" filter="url(#inner-blur)"></path><path d="M349.5 494.75Q406.5 543.75 450.5 494.75 " stroke-width="13" stroke="hsl(3, 100%, 51%)" fill="none" filter="url(#mouth-shadow)"></path><path d="M349.5 494.75Q406.5 543.75 450.5 494.75 " stroke-width="4.333333333333333" stroke="url(#mouth-light)" fill="none" filter="url(#inner-blur)"></path></g></svg>